<svg width="31" height="30" viewBox="0 0 31 30" fill="none" xmlns="http://www.w3.org/2000/svg">
<rect width="31" height="30" rx="15" fill="black" fill-opacity="0.9"/>
<path d="M28 18.1618C28 14.0675 24.5877 11.2382 18.5426 11.2382H9.66652L6.55788 11.3557L9.07166 9.61929L12.8813 6.59693C13.0923 6.42544 13.1984 6.22193 13.1984 5.94297C13.1984 5.38597 12.7356 5 12.0347 5C11.7435 5 11.3992 5.11799 11.1746 5.3L3.39676 11.4842C3.13207 11.6882 3 11.9347 3 12.2022C3 12.4596 3.13207 12.7061 3.39676 12.9101L11.1746 19.0943C11.402 19.2814 11.7106 19.3891 12.0347 19.3943C12.7356 19.3943 13.1984 19.0088 13.1984 18.4513C13.1984 18.1724 13.0923 17.9689 12.8813 17.7974L9.07166 14.7855L6.55788 13.0491L9.66652 13.1566H18.7407C23.2513 13.1566 25.646 15.1715 25.646 18.0544C25.646 20.9487 23.2513 23.0921 18.7407 23.0921H15.6987C14.9706 23.0921 14.4948 23.5211 14.4948 24.046C14.4948 24.5715 14.9712 25 15.6987 25H18.7542C24.6803 25 28 22.2671 28 18.1618Z" fill="white"/>
</svg>
